# xmcd
#
# Track frame offsets: 
#        183
#        17183
#        29015
#        49463
#        61680
#        81183
#        95095
#        114805
#        130055
#        147970
#        161340
#        175975
#        196208
#        208738
#        222655
#        241175
#        257215
#        278373
#        300440
#        322573
#
# Disc length: 4585 seconds
#
# Revision: 2
# Processed by: cddbd v1.5.2PL0 Copyright (c) Steve Scherf et al.
# Submitted via: ExactAudioCopy v1.3
#
DISCID=1411e714
DTITLE=Van Morrison - The best of Van Morrison
DYEAR=1990
DGENRE=Blues
TTITLE0=Bright side of the road
TTITLE1=Gloria
TTITLE2=Moondance
TTITLE3=Baby please don't go
TTITLE4=Have I told you lately
TTITLE5=Brown eyed girl
TTITLE6=Sweet thing
TTITLE7=Warm love
TTITLE8=Wonderful remark
TTITLE9=Jackie Wilson said
TTITLE10=Full force gale
TTITLE11=And it stoned me
TTITLE12=Here comes the night
TTITLE13=Domino
TTITLE14=Did ye get healed
TTITLE15=Wild night
TTITLE16=Cleaning windows
TTITLE17=Whenever god shines his light
TTITLE18=Queen of the slipstream
TTITLE19=Dweller on the threshold
EXTD=YEAR: 1990
EXTT0=taken from the album "Into the Music"
EXTT1=taken from the album "Them - featuring Van Morrison"
EXTT2=taken from the album "Moondance"
EXTT3=taken from the album "Them - featuring Van Morrison"
EXTT4=taken from the album "Avalon Sunset"
EXTT5=taken from the album "TB Sheets"
EXTT6=taken from the album "Astral Weeks"
EXTT7=taken from the album "Hard Nose The Highway"
EXTT8=taken from the album "King Of Comedy"
EXTT9=taken from the album "St. Dominic's Preview"
EXTT10=taken from the album "Into the Music"
EXTT11=taken from the album "Moondance"
EXTT12=taken from the album "Them - featuring Van Morrison"
EXTT13=taken from the album "Van Morrison - His Band And The Street Ch
EXTT13=oir"
EXTT14=taken from the album "Poetic Champions Compose"
EXTT15=taken from the album "Tupelo Honey"
EXTT16=taken from the album "Beautiful Vision"
EXTT17=taken from the album "Avalon Sunset"
EXTT18=taken from the album "Poetic Champions Compose"
EXTT19=taken from the album "Beautiful Vision"
PLAYORDER=
